<svg width="51" height="51" viewBox="0 0 51 51" fill="none" xmlns="http://www.w3.org/2000/svg">
<rect width="51" height="51" rx="5" fill="white"/>
<path d="M18.9375 16.5037C18.3573 16.5037 17.8009 16.7406 17.3907 17.1624C16.9805 17.5842 16.75 18.1563 16.75 18.7528C16.75 19.3492 16.9805 19.9213 17.3907 20.3431C17.8009 20.7649 18.3573 21.0018 18.9375 21.0018C19.5177 21.0018 20.0741 20.7649 20.4843 20.3431C20.8945 19.9213 21.125 19.3492 21.125 18.7528C21.125 18.1563 20.8945 17.5842 20.4843 17.1624C20.0741 16.7406 19.5177 16.5037 18.9375 16.5037ZM12.7469 16.5037C13.1988 15.1868 14.0369 14.0464 15.1457 13.2398C16.2544 12.4332 17.5793 12 18.9375 12C20.2957 12 21.6206 12.4332 22.7293 13.2398C23.8381 14.0464 24.6762 15.1868 25.1281 16.5037H40.8125C41.3927 16.5037 41.9491 16.7406 42.3593 17.1624C42.7695 17.5842 43 18.1563 43 18.7528C43 19.3492 42.7695 19.9213 42.3593 20.3431C41.9491 20.7649 41.3927 21.0018 40.8125 21.0018H25.1281C24.6762 22.3187 23.8381 23.4591 22.7293 24.2657C21.6206 25.0723 20.2957 25.5055 18.9375 25.5055C17.5793 25.5055 16.2544 25.0723 15.1457 24.2657C14.0369 23.4591 13.1988 22.3187 12.7469 21.0018H10.1875C9.60734 21.0018 9.05094 20.7649 8.6407 20.3431C8.23047 19.9213 8 19.3492 8 18.7528C8 18.1563 8.23047 17.5842 8.6407 17.1624C9.05094 16.7406 9.60734 16.5037 10.1875 16.5037H12.7469ZM32.0625 29.9982C31.4823 29.9982 30.9259 30.2351 30.5157 30.6569C30.1055 31.0787 29.875 31.6508 29.875 32.2472C29.875 32.8437 30.1055 33.4158 30.5157 33.8376C30.9259 34.2594 31.4823 34.4963 32.0625 34.4963C32.6427 34.4963 33.1991 34.2594 33.6093 33.8376C34.0195 33.4158 34.25 32.8437 34.25 32.2472C34.25 31.6508 34.0195 31.0787 33.6093 30.6569C33.1991 30.2351 32.6427 29.9982 32.0625 29.9982ZM25.8719 29.9982C26.3238 28.6813 27.1619 27.5409 28.2707 26.7343C29.3794 25.9277 30.7043 25.4945 32.0625 25.4945C33.4207 25.4945 34.7456 25.9277 35.8543 26.7343C36.9631 27.5409 37.8012 28.6813 38.2531 29.9982H40.8125C41.3927 29.9982 41.9491 30.2351 42.3593 30.6569C42.7695 31.0787 43 31.6508 43 32.2472C43 32.8437 42.7695 33.4158 42.3593 33.8376C41.9491 34.2594 41.3927 34.4963 40.8125 34.4963H38.2531C37.8012 35.8132 36.9631 36.9536 35.8543 37.7602C34.7456 38.5668 33.4207 39 32.0625 39C30.7043 39 29.3794 38.5668 28.2707 37.7602C27.1619 36.9536 26.3238 35.8132 25.8719 34.4963H10.1875C9.60734 34.4963 9.05094 34.2594 8.6407 33.8376C8.23047 33.4158 8 32.8437 8 32.2472C8 31.6508 8.23047 31.0787 8.6407 30.6569C9.05094 30.2351 9.60734 29.9982 10.1875 29.9982H25.8719Z" fill="#424242"/>
</svg>
