<svg width="35" height="27" viewBox="0 0 35 27" fill="none" xmlns="http://www.w3.org/2000/svg">
<path d="M10.9375 4.50367C10.3573 4.50367 9.80094 4.74063 9.3907 5.16242C8.98047 5.5842 8.75 6.15626 8.75 6.75276C8.75 7.34925 8.98047 7.92131 9.3907 8.3431C9.80094 8.76488 10.3573 9.00184 10.9375 9.00184C11.5177 9.00184 12.0741 8.76488 12.4843 8.3431C12.8945 7.92131 13.125 7.34925 13.125 6.75276C13.125 6.15626 12.8945 5.5842 12.4843 5.16242C12.0741 4.74063 11.5177 4.50367 10.9375 4.50367ZM4.74688 4.50367C5.19882 3.18676 6.03693 2.0464 7.14569 1.23978C8.25444 0.433164 9.57925 0 10.9375 0C12.2957 0 13.6206 0.433164 14.7293 1.23978C15.8381 2.0464 16.6762 3.18676 17.1281 4.50367H32.8125C33.3927 4.50367 33.9491 4.74063 34.3593 5.16242C34.7695 5.5842 35 6.15626 35 6.75276C35 7.34925 34.7695 7.92131 34.3593 8.3431C33.9491 8.76488 33.3927 9.00184 32.8125 9.00184H17.1281C16.6762 10.3187 15.8381 11.4591 14.7293 12.2657C13.6206 13.0723 12.2957 13.5055 10.9375 13.5055C9.57925 13.5055 8.25444 13.0723 7.14569 12.2657C6.03693 11.4591 5.19882 10.3187 4.74688 9.00184H2.1875C1.60734 9.00184 1.05094 8.76488 0.640704 8.3431C0.230469 7.92131 0 7.34925 0 6.75276C0 6.15626 0.230469 5.5842 0.640704 5.16242C1.05094 4.74063 1.60734 4.50367 2.1875 4.50367H4.74688ZM24.0625 17.9982C23.4823 17.9982 22.9259 18.2351 22.5157 18.6569C22.1055 19.0787 21.875 19.6508 21.875 20.2472C21.875 20.8437 22.1055 21.4158 22.5157 21.8376C22.9259 22.2594 23.4823 22.4963 24.0625 22.4963C24.6427 22.4963 25.1991 22.2594 25.6093 21.8376C26.0195 21.4158 26.25 20.8437 26.25 20.2472C26.25 19.6508 26.0195 19.0787 25.6093 18.6569C25.1991 18.2351 24.6427 17.9982 24.0625 17.9982ZM17.8719 17.9982C18.3238 16.6813 19.1619 15.5409 20.2707 14.7343C21.3794 13.9277 22.7043 13.4945 24.0625 13.4945C25.4207 13.4945 26.7456 13.9277 27.8543 14.7343C28.9631 15.5409 29.8012 16.6813 30.2531 17.9982H32.8125C33.3927 17.9982 33.9491 18.2351 34.3593 18.6569C34.7695 19.0787 35 19.6508 35 20.2472C35 20.8437 34.7695 21.4158 34.3593 21.8376C33.9491 22.2594 33.3927 22.4963 32.8125 22.4963H30.2531C29.8012 23.8132 28.9631 24.9536 27.8543 25.7602C26.7456 26.5668 25.4207 27 24.0625 27C22.7043 27 21.3794 26.5668 20.2707 25.7602C19.1619 24.9536 18.3238 23.8132 17.8719 22.4963H2.1875C1.60734 22.4963 1.05094 22.2594 0.640704 21.8376C0.230469 21.4158 0 20.8437 0 20.2472C0 19.6508 0.230469 19.0787 0.640704 18.6569C1.05094 18.2351 1.60734 17.9982 2.1875 17.9982H17.8719Z" fill="#424242"/>
</svg>
