<svg width="35" height="35" viewBox="0 0 35 35" fill="none" xmlns="http://www.w3.org/2000/svg">
<path d="M14.3906 11.3359C14.3906 9.60938 15.7891 8.21094 17.5 8.21094C19.2109 8.21094 20.6094 9.60938 20.6094 11.3359C20.6094 13.0547 19.2109 14.4453 17.5 14.4453C15.7891 14.4453 14.3906 13.0469 14.3906 11.3359V11.3359ZM35 3.75V31.25C35 33.3203 33.3203 35 31.25 35H3.75C1.67969 35 0 33.3203 0 31.25V3.75C0 1.67969 1.67969 0 3.75 0H31.25C33.3203 0 35 1.67969 35 3.75ZM11.1641 11.3359C11.1641 14.8203 14.0078 17.6562 17.5 17.6562C20.9922 17.6562 23.8359 14.8281 23.8359 11.3359C23.8359 7.83594 20.9922 5 17.5 5C14.0078 5 11.1641 7.82813 11.1641 11.3359ZM24.7969 18.4219C24.4375 17.7109 23.4453 17.1094 22.1328 18.1406C22.1328 18.1406 20.3594 19.5469 17.5 19.5469C14.6406 19.5469 12.8672 18.1406 12.8672 18.1406C11.5547 17.1094 10.5625 17.7109 10.2031 18.4219C9.58594 19.6797 10.2891 20.2734 11.875 21.3125C13.2266 22.1797 15.0938 22.5 16.2969 22.625L15.2891 23.6328C13.8672 25.0391 12.5156 26.4063 11.5625 27.3594C10.1875 28.7344 12.3984 30.9375 13.7812 29.5937L17.5078 25.8516C18.9297 27.2734 20.2969 28.6406 21.2344 29.5937C22.6094 30.9375 24.8281 28.7578 23.4687 27.3594L19.7422 23.6328L18.7266 22.625C19.9375 22.5 21.7812 22.1641 23.1172 21.3125C24.7109 20.2734 25.4062 19.6719 24.7969 18.4219Z" fill="#424242"/>
</svg>
