<svg width="257" height="373" viewBox="0 0 257 373" fill="none" xmlns="http://www.w3.org/2000/svg">
<path d="M256.8 81.5464C257.795 97.5243 255.063 113.515 248.816 128.266C242.57 143.018 232.979 156.131 220.795 166.579C197.68 186.599 168.081 197.64 137.442 197.672C136.092 197.672 134.831 197.672 133.481 197.672C125.906 197.478 118.508 195.349 111.998 191.489C105.488 187.629 100.084 182.168 96.3053 175.629L101.706 169.716C108.256 171.965 115.121 173.174 122.049 173.3C130.135 173.502 138.16 171.874 145.521 168.536C152.881 165.199 159.383 160.24 164.536 154.035C175.984 138.768 181.514 119.901 180.108 100.901C179.688 51.9775 157.425 27.6652 113.318 27.9639C104.443 28.0808 95.9664 31.6546 89.7069 37.9191C83.4473 44.1835 79.9026 52.64 79.8328 61.4753C79.8328 75.4534 79.8328 94.0908 79.8328 117.567L81.093 256.899C83.3433 281.629 127.27 257.437 153.104 256.899C177.318 256.451 175.788 268.099 178.218 290.5C180.288 309.854 176.598 325.356 157.065 325.714C131.411 326.252 84.4235 305.912 85.0536 338.438C85.3837 340.772 86.4228 342.95 88.0317 344.679C89.6406 346.409 91.7423 347.608 94.055 348.115C95.5852 348.115 77.7624 372.218 44.1872 372.576C6.65136 372.935 5.84124 299.371 5.48118 257.526L4.311 118.194C4.80617 90.9198 3.39253 63.6444 0.0803422 36.5658C-0.729784 31.548 4.04096 2.87512 39.6865 2.51671C54.4488 2.51671 75.6921 1.97909 103.416 1.17267L151.304 0.00782937C199.311 -0.350582 230.666 11.5965 245.369 35.8489C253.204 49.7943 257.151 65.5717 256.8 81.5464Z" fill="#FF9900"/>
</svg>
