<svg width="35" height="35" viewBox="0 0 35 35" fill="none" xmlns="http://www.w3.org/2000/svg">
<path d="M31.7188 0H3.28125C1.47656 0 0 1.47656 0 3.28125V31.7188C0 33.5234 1.47656 35 3.28125 35H31.7188C33.5234 35 35 33.5234 35 31.7188V3.28125C35 1.47656 33.5234 0 31.7188 0ZM28.3478 24.5L25.1475 24.5481C25.1475 24.5481 24.4562 24.6859 23.555 24.0625C22.3584 23.2422 21.2297 21.1028 20.3481 21.3828C19.46 21.6628 19.4862 23.5834 19.4862 23.5834C19.4862 23.5834 19.4928 23.9947 19.2872 24.2112C19.0684 24.4497 18.6309 24.4978 18.6309 24.4978H17.2025C17.2025 24.4978 14.0437 24.6903 11.2612 21.7897C8.225 18.6309 5.5475 12.3637 5.5475 12.3637C5.5475 12.3637 5.39 11.9525 5.56063 11.7556C5.75094 11.5303 6.265 11.5172 6.265 11.5172L9.69062 11.4975C9.69062 11.4975 10.0122 11.5522 10.2441 11.7228C10.4366 11.8606 10.5372 12.1253 10.5372 12.1253C10.5372 12.1253 11.0906 13.5275 11.8234 14.7919C13.2519 17.2594 13.9212 17.7997 14.4069 17.5394C15.1112 17.1566 14.8991 14.0459 14.8991 14.0459C14.8991 14.0459 14.9122 12.9172 14.5447 12.4184C14.2581 12.0291 13.7178 11.9131 13.4859 11.8847C13.2934 11.8563 13.6084 11.4122 14.0197 11.2088C14.6344 10.9069 15.7216 10.8872 17.0078 10.9003C18.0053 10.9069 18.3006 10.9747 18.69 11.0644C19.8734 11.3509 19.4687 12.4513 19.4687 15.0916C19.4687 15.9403 19.3178 17.1281 19.9259 17.5175C20.1863 17.6881 20.8272 17.5438 22.435 14.8181C23.1941 13.5253 23.7672 12.0094 23.7672 12.0094C23.7672 12.0094 23.8897 11.7359 24.0822 11.62C24.2812 11.5041 24.5481 11.5391 24.5481 11.5391L28.1509 11.5194C28.1509 11.5194 29.2316 11.3903 29.4088 11.8825C29.5925 12.3944 29.0063 13.5909 27.5363 15.5531C25.1234 18.7731 24.85 18.4712 26.8603 20.3306C28.7744 22.1091 29.1703 22.9753 29.2403 23.0847C30.0191 24.3972 28.3522 24.5 28.3522 24.5H28.3478Z" fill="#424242"/>
</svg>
